<svg width="52" height="52" viewBox="0 0 52 52" fill="none" xmlns="http://www.w3.org/2000/svg">
<path d="M17.5498 5.19995C18.6304 5.19995 19.4998 6.06933 19.4998 7.14995V10.4H32.4998V7.14995C32.4998 6.06933 33.3692 5.19995 34.4498 5.19995C35.5304 5.19995 36.3998 6.06933 36.3998 7.14995V10.4H38.9998C41.8679 10.4 44.1998 12.7318 44.1998 15.6V38.9999C44.1998 41.8681 41.8679 44.1999 38.9998 44.1999H12.9998C10.1317 44.1999 7.7998 41.8681 7.7998 38.9999V15.6C7.7998 12.7318 10.1317 10.4 12.9998 10.4H15.5998V7.14995C15.5998 6.06933 16.4692 5.19995 17.5498 5.19995ZM17.5498 14.3H12.9998C12.2848 14.3 11.6998 14.885 11.6998 15.6V19.5H40.2998V15.6C40.2998 14.885 39.7148 14.3 38.9998 14.3H17.5498ZM11.6998 23.4V38.9999C11.6998 39.7149 12.2848 40.2999 12.9998 40.2999H38.9998C39.7148 40.2999 40.2998 39.7149 40.2998 38.9999V23.4H11.6998Z" fill="black"/>
<rect x="24" y="25" width="4" height="11" fill="black"/>
<rect x="24" y="37" width="4" height="2" fill="black"/>
</svg>
